<svg xmlns="http://www.w3.org/2000/svg" viewBox="0 0 320 200" width="320" height="200">
  <g stroke="#1E40AF" stroke-width="9" stroke-linecap="round" stroke-linejoin="round" fill="none">
    <path d="M 40 50 L 75 175 L 110 95 L 145 175 L 180 50"/>
  </g>

  <g stroke="#1E40AF" stroke-width="3" stroke-linecap="round" fill="none" stroke-dasharray="5 6">
    <line x1="225" y1="100" x2="180" y2="50"/>
    <line x1="225" y1="100" x2="255" y2="55"/>
    <line x1="225" y1="100" x2="290" y2="60"/>
    <line x1="225" y1="100" x2="295" y2="120"/>
    <line x1="225" y1="100" x2="290" y2="160"/>
    <line x1="225" y1="100" x2="255" y2="180"/>
  </g>

  <g fill="#1E40AF">
    <circle cx="40" cy="50" r="11"/>
    <circle cx="75" cy="175" r="11"/>
    <circle cx="110" cy="95" r="11"/>
    <circle cx="145" cy="175" r="11"/>
    <circle cx="180" cy="50" r="11"/>
  </g>

  <g fill="#1E40AF">
    <circle cx="255" cy="55" r="8"/>
    <circle cx="290" cy="60" r="8"/>
    <circle cx="295" cy="120" r="8"/>
    <circle cx="290" cy="160" r="8"/>
    <circle cx="255" cy="180" r="8"/>
  </g>

  <circle cx="225" cy="100" r="32" fill="#F97316"/>
  <text x="225" y="109" text-anchor="middle" font-family="'Cormorant Garamond', Georgia, 'Times New Roman', serif" font-size="26" font-weight="600" letter-spacing="0.5" fill="#FFFFFF">AI</text>
</svg>
